<?xml version="1.0" encoding="UTF-8"?>
<svg version="1.1" xmlns="http://www.w3.org/2000/svg" width="32" height="32" viewBox="0 0 32 32">
  <!-- Fundo sólido e contrastante -->
  <rect width="32" height="32" fill="#1a1a1a" rx="6"/>
  
  <!-- Borda para definição -->
  <rect width="30" height="30" x="1" y="1" fill="none" stroke="#333" stroke-width="1" rx="5"/>
  
  <!-- Letra S grande e bold com melhor contraste -->
  <path d="M8 9 C10 7 14 7 18 9 C20 10 21 12 20 14 C19 15 17 15 15 16 C13 17 12 18 12 20 C12 21 13 22 15 23 C17 24 19 24 21 23 C22 22 23 21 24 20 L25 22 C23 24 20 25 16 25 C12 25 9 23 8 20 C7 17 8 15 10 14 C12 13 14 13 16 12 C18 11 19 10 18 9 C17 8 15 8 13 8 C11 8 10 9 9 10 L7 8 C9 6 12 5 16 5 C20 5 23 7 24 10 Z" fill="#ffffff" stroke="#ff4444" stroke-width="1"/>
  
  <!-- Ponto de destaque maior -->
  <circle cx="25" cy="7" r="2.5" fill="#ff4444"/>
  <circle cx="25" cy="7" r="1.5" fill="#ffffff"/>
</svg>