<?xml version="1.0" encoding="UTF-8"?>
<svg version="1.1" xmlns="http://www.w3.org/2000/svg" width="1920" height="881">
<path d="M0 0 C0.69581901 15.23070494 -1.42116866 27.33546594 -11.8828125 39.12109375 C-15.12361495 42.48263198 -18.38421887 45.32199009 -22.25 47.9375 C-29.37152059 53.17105412 -30.62540868 61.9693565 -33.07714844 70.04418945 C-36.742542 81.88698123 -42.26068072 90.3476777 -52 98 C-50.69919346 102.4188202 -48.97574308 105.91349062 -46.4375 109.75 C-43.03913043 114.92173913 -43.03913043 114.92173913 -42 117 C-33.04109933 103.51159926 -26.27192022 88.90221403 -20.3125 73.875 C-15.51395156 61.86817 -9.40180991 50.77631088 2.6875 45.125 C8.51706435 42.63486077 12.86962761 41.87842248 19.25 41.9375 C21.14492187 41.95103516 21.14492187 41.95103516 23.078125 41.96484375 C24.04234375 41.97644531 25.0065625 41.98804688 26 42 C24.20718848 55.72916189 20.58806951 67.00380007 9.4921875 76.04296875 C4.39898964 79.525053 0.59038246 81.0777663 -5.5 81.9375 C-9.28938607 82.94440686 -11.33994366 83.99792026 -13.51806641 87.3046875 C-16.69744977 93.40369724 -19.22772933 99.78360257 -21.80371094 106.15478516 C-26.55889932 117.46436993 -34.48195884 127.2674304 -43 136 C-43.99 136.33 -44.98 136.66 -46 137 C-46.28085449 136.37657715 -46.56170898 135.7531543 -46.85107422 135.11083984 C-57.12281077 110.38060353 -57.12281077 110.38060353 -76.3828125 92.90380859 C-79.00426672 91.99852655 -81.3095388 91.57816495 -84.0625 91.2890625 C-85.01817871 91.18102295 -85.97385742 91.0729834 -86.95849609 90.96166992 C-88.46404053 90.79501831 -88.46404053 90.79501831 -90 90.625 C-102.15507283 89.14005559 -114.52088874 87.57283964 -124 79 C-124 78.34 -124 77.68 -124 77 C-124.8971875 76.62875 -124.8971875 76.62875 -125.8125 76.25 C-128.31626919 74.81927475 -129.48072388 73.4308418 -131 71 C-131 70.34 -131 69.68 -131 69 C-131.66 69 -132.32 69 -133 69 C-133.99 66.03 -134.98 63.06 -136 60 C-121.93157373 54.41253992 -110.95213101 54.93093595 -97.04394531 60.82958984 C-83.87288011 66.65707553 -73.8727107 74.810621 -63.88183594 85.10253906 C-61.21830201 87.9105975 -61.21830201 87.9105975 -58 90 C-55.14525149 80.93197532 -55.90302547 73.16194354 -59.71484375 64.4453125 C-64.43988953 55.45479985 -71.50507878 49.29695273 -80.125 44.125 C-88.35437369 38.04241945 -92.07318058 29.89100634 -94 20 C-94.26902727 16.29977245 -94.2668573 12.69893865 -94 9 C-83.6171159 9 -74.13437758 14.2833345 -66.6953125 21.1171875 C-55.26505074 32.8553351 -51.47118476 47.15096298 -47.61474609 62.58544922 C-46.81034905 65.74489592 -45.91661502 68.87145952 -45 72 C-44.86948242 71.32122803 -44.73896484 70.64245605 -44.60449219 69.94311523 C-34.89086952 19.69510655 -34.89086952 19.69510655 -16.11328125 6.38671875 C-5.84948372 -0.34830551 -5.84948372 -0.34830551 0 0 Z " fill="#A7BAA1" transform="translate(1006,439)"/>
<path d="M0 0 C0.89267578 0.00322266 1.78535156 0.00644531 2.70507812 0.00976562 C4.09823242 0.02233398 4.09823242 0.02233398 5.51953125 0.03515625 C6.45990234 0.03966797 7.40027344 0.04417969 8.36914062 0.04882812 C10.69016837 0.06060999 13.01106769 0.07706067 15.33203125 0.09765625 C16.44875966 3.47697354 16.36759883 4.01198393 14.8984375 7.55078125 C14.24258926 8.82272935 13.57415042 10.08824898 12.89453125 11.34765625 C12.55615234 11.99734375 12.21777344 12.64703125 11.86914062 13.31640625 C11.03416238 14.91580119 10.18450011 16.50751484 9.33203125 18.09765625 C8.67203125 18.09765625 8.01203125 18.09765625 7.33203125 18.09765625 C7.06390625 18.73703125 6.79578125 19.37640625 6.51953125 20.03515625 C5.33203125 22.09765625 5.33203125 22.09765625 2.33203125 23.09765625 C2.33203125 23.75765625 2.33203125 24.41765625 2.33203125 25.09765625 C-5.79250295 31.42457117 -14.72938506 33.47676252 -24.68676758 35.06176758 C-36.6137638 37.03462299 -43.07348907 41.40648441 -50.5234375 50.95703125 C-57.23039538 60.7792428 -62.07035801 71.30185785 -62.04296875 83.34765625 C-62.04135742 84.08983398 -62.03974609 84.83201172 -62.03808594 85.59667969 C-61.84545242 94.30295921 -59.58412728 101.54762359 -53.66796875 108.09765625 C-53.66796875 108.75765625 -53.66796875 109.41765625 -53.66796875 110.09765625 C-53.11109375 110.34515625 -52.55421875 110.59265625 -51.98046875 110.84765625 C-49.66796875 112.09765625 -49.66796875 112.09765625 -47.48046875 113.97265625 C-42.57376584 117.67994289 -36.80721107 120.30549595 -30.66796875 121.09765625 C-30.66796875 121.42765625 -30.66796875 121.75765625 -30.66796875 122.09765625 C-59.33565187 123.1925317 -87.9827153 123.21115877 -116.66796875 123.09765625 C-116.66796875 122.43765625 -116.66796875 121.77765625 -116.66796875 121.09765625 C-114.78078125 120.60265625 -114.78078125 120.60265625 -112.85546875 120.09765625 C-103.04868329 116.78747945 -95.35306403 110.29255413 -90.66796875 101.09765625 C-90.33023438 100.44667969 -89.9925 99.79570313 -89.64453125 99.125 C-85.06723572 88.22767716 -86.80221112 74.81460848 -91.109375 64.19921875 C-93.41528257 59.61052049 -96.15307964 55.82606666 -99.66796875 52.09765625 C-100.41046875 51.27265625 -101.15296875 50.44765625 -101.91796875 49.59765625 C-108.30756011 46.1124246 -116.15829471 47.09394125 -123.23046875 47.22265625 C-135.79884868 47.26078076 -145.52192393 42.81714372 -154.91796875 34.41015625 C-156.66796875 32.09765625 -156.66796875 32.09765625 -156.5625 30.1484375 C-154.50371273 25.42851036 -148.15522209 23.08325944 -143.578125 21.26953125 C-132.29275714 18.03854659 -121.35557761 20.58684716 -111.1484375 25.9453125 C-93.4521122 36.35979131 -82.77902488 51.6074067 -74.66796875 70.09765625 C-74.31734375 69.00453125 -73.96671875 67.91140625 -73.60546875 66.78515625 C-71.4496054 61.04630875 -68.0738093 56.16058279 -64.66796875 51.09765625 C-64.09691406 50.21335937 -63.52585937 49.3290625 -62.9375 48.41796875 C-62.09251953 47.14566406 -62.09251953 47.14566406 -61.23046875 45.84765625 C-60.73675781 45.1 -60.24304688 44.35234375 -59.734375 43.58203125 C-57.34176342 40.70546987 -54.67343783 38.4318811 -51.83325195 36.00732422 C-48.93795126 33.45381852 -46.27084319 30.71107609 -43.58081055 27.94458008 C-16.29981676 -0.10382049 -16.29981676 -0.10382049 0 0 Z " fill="#A8BBA2" transform="translate(1034.66796875,519.90234375)"/>
<path d="M0 0 C0.00586624 0.91010834 0.01173248 1.82021667 0.01777649 2.75790405 C0.07560804 11.32225236 0.14762931 19.8863372 0.23571491 28.45042992 C0.28050017 32.85365353 0.31973794 37.25678287 0.34643555 41.66015625 C0.37238767 45.9072852 0.41273162 50.15405292 0.46318626 54.40095901 C0.47991002 56.02367292 0.49138988 57.64644938 0.49761391 59.26923752 C0.5071957 61.53713879 0.53518101 63.80410439 0.56762695 66.07177734 C0.58428154 68.01037125 0.58428154 68.01037125 0.60127258 69.98812866 C0.73285263 70.9820462 0.86443268 71.97596375 1 73 C1.99 73.66 2.98 74.32 4 75 C4 75.99 4 76.98 4 78 C-5.9 78.495 -5.9 78.495 -16 79 C-16.33 78.01 -16.66 77.02 -17 76 C-18.0725 76.495 -19.145 76.99 -20.25 77.5 C-27.39801159 80.16149368 -36.15162881 80.32239204 -43.1875 77.15625 C-49.693139 73.00610098 -52.91614569 67.33657866 -54.56640625 59.92578125 C-56.07166108 49.76870137 -55.14591425 40.74942949 -50.1875 31.6875 C-46.09462417 26.65910969 -42.25753476 23.68878046 -36 22 C-32.5625 21.734375 -32.5625 21.734375 -29 21.75 C-27.2365625 21.74226562 -27.2365625 21.74226562 -25.4375 21.734375 C-22 22 -22 22 -16 24 C-16.33 18.39 -16.66 12.78 -17 7 C-19.475 6.505 -19.475 6.505 -22 6 C-22 5.34 -22 4.68 -22 4 C-19.08644159 3.13372595 -16.16995672 2.28168994 -13.25 1.4375 C-12.425 1.19064453 -11.6 0.94378906 -10.75 0.68945312 C-9.95078125 0.46064453 -9.1515625 0.23183594 -8.328125 -0.00390625 C-7.5949707 -0.21861572 -6.86181641 -0.4333252 -6.10644531 -0.65454102 C-3.74742187 -1.04142305 -2.27698902 -0.63567276 0 0 Z M-33 30 C-36.81598443 36.53456157 -37.37619997 43.22788917 -37.4375 50.625 C-37.4475708 51.41205322 -37.4576416 52.19910645 -37.46801758 53.01000977 C-37.37819123 59.12011289 -36.53902698 65.6799584 -32.7253418 70.66674805 C-30.01821169 73.22783738 -28.0599507 73.99276457 -24.375 74.4375 C-20.76815341 74.15784389 -20.76815341 74.15784389 -17 72 C-17 57.48 -17 42.96 -17 28 C-23.1965707 24.90171465 -28.26749695 24.50006402 -33 30 Z " fill="#4A4A4A" transform="translate(874,635)"/>
<path d="M0 0 C9.24 0 18.48 0 28 0 C28 0.99 28 1.98 28 3 C27.01 3.33 26.02 3.66 25 4 C25.58471181 10.82975878 27.36682833 16.93946503 29.5 23.4375 C29.82097656 24.44232422 30.14195312 25.44714844 30.47265625 26.48242188 C31.62815285 31.07782156 31.62815285 31.07782156 34 35 C35.21043852 32.17463728 36.39305979 29.34229658 37.5625 26.5 C37.90474609 25.70851563 38.24699219 24.91703125 38.59960938 24.1015625 C40.86374395 18.52127123 41.32278796 14.9011754 40 9 C38.2389807 5.27149414 38.2389807 5.27149414 35 3 C35 2.01 35 1.02 35 0 C42.59 0 50.18 0 58 0 C58 0.99 58 1.98 58 3 C57.34 3.33 56.68 3.66 56 4 C56.61401279 10.26120085 58.48936114 15.83026488 60.5625 21.75 C61.21375046 23.61836237 61.86107152 25.4881004 62.50390625 27.359375 C62.79080322 28.17889648 63.0777002 28.99841797 63.37329102 29.84277344 C64 32 64 32 64 35 C64.66 35 65.32 35 66 35 C66.12689209 34.29786377 66.25378418 33.59572754 66.38452148 32.87231445 C67.0320191 29.85057332 67.89767287 26.9833935 68.84765625 24.04296875 C69.38422852 22.37524414 69.38422852 22.37524414 69.93164062 20.67382812 C70.49141602 18.9480957 70.49141602 18.9480957 71.0625 17.1875 C71.43955078 16.01767578 71.81660156 14.84785156 72.20507812 13.64257812 C73.13426679 10.76091708 74.06599028 7.88010132 75 5 C73.68 4.34 72.36 3.68 71 3 C71 2.01 71 1.02 71 0 C75.62 0 80.24 0 85 0 C85 0.99 85 1.98 85 3 C84.21889359 3.23065155 83.43778717 3.4613031 82.63301086 3.69894409 C79.87660963 4.75988901 79.87660963 4.75988901 78.75334167 7.13870239 C78.46244156 8.0225058 78.17154144 8.9063092 77.87182617 9.81689453 C77.53185104 10.81778107 77.19187592 11.8186676 76.84159851 12.84988403 C76.49555069 13.93325043 76.14950287 15.01661682 75.79296875 16.1328125 C75.42271072 17.23978485 75.0524527 18.3467572 74.67097473 19.48727417 C73.49152354 23.02742215 72.33930737 26.57577314 71.1875 30.125 C70.39305249 32.52532827 69.59685 34.92507645 68.79882812 37.32421875 C66.84546455 43.20956389 64.91439221 49.10187082 63 55 C60.69 55 58.38 55 56 55 C53.15595038 48.10009643 50.60221652 41.14438794 48.25 34.0625 C47.93417969 33.13115234 47.61835937 32.19980469 47.29296875 31.24023438 C46.84630859 29.9012207 46.84630859 29.9012207 46.390625 28.53515625 C46.12282227 27.734729 45.85501953 26.93430176 45.57910156 26.10961914 C45 24 45 24 45 21 C44.34 21 43.68 21 43 21 C42.76539063 22.21558594 42.53078125 23.43117188 42.2890625 24.68359375 C40.88388899 31.00687453 38.61543525 36.99582143 36.375 43.0625 C35.74464844 44.79016602 35.74464844 44.79016602 35.1015625 46.55273438 C34.07271705 49.37036794 33.03876545 52.18601184 32 55 C29.36 55 26.72 55 24 55 C23.08531542 52.56084111 22.17069598 50.12165802 21.25634766 47.68237305 C20.45370451 45.54281201 19.64997558 43.40365802 18.84521484 41.26489258 C16.70601492 35.57492031 14.58546866 29.8793019 12.50390625 24.16796875 C12.10486084 23.08128906 11.70581543 21.99460937 11.29467773 20.875 C10.52581802 18.77977303 9.76341126 16.68216475 9.00805664 14.58203125 C8.48199829 13.15503906 8.48199829 13.15503906 7.9453125 11.69921875 C7.64125488 10.86221436 7.33719727 10.02520996 7.02392578 9.1628418 C5.35920227 5.64644086 3.21815717 4.14543811 0 2 C0 1.34 0 0.68 0 0 Z " fill="#A8BBA2" transform="translate(970,658)"/>
<path d="M0 0 C5.84742486 4.16066769 7.52537914 7.38939772 8.82177734 14.23681641 C9.66232762 20.27401842 9.73007976 26.35085011 9.875 32.4375 C9.91328301 33.7890848 9.95234027 35.14064791 9.9921875 36.4921875 C10.08571054 39.76549391 10.17146198 43.03880557 10.25 46.3125 C12.56 46.9725 14.87 47.6325 17.25 48.3125 C16.237668 51.24826279 15.28642058 52.28762741 12.6875 54.0625 C8.38469534 55.62715624 4.77696402 56.06564428 0.25 55.3125 C-2.93970398 53.57266146 -5.19695493 51.86554507 -7.75 49.3125 C-8.27207031 49.745625 -8.79414062 50.17875 -9.33203125 50.625 C-14.61145098 54.61923699 -18.5117502 56.1701607 -25.1640625 55.76953125 C-30.11490462 54.89453347 -33.26449904 52.94175912 -36.6875 49.1875 C-38.30360833 44.814501 -38.61096801 40.90432941 -37.75 36.3125 C-35.05793471 30.92836941 -30.57763408 28.2317361 -25.1171875 26.08984375 C-19.23069692 24.15682127 -13.96132206 23.20586786 -7.75 23.3125 C-7.83711104 20.56099263 -7.94399615 17.81268367 -8.0625 15.0625 C-8.08505859 14.28519531 -8.10761719 13.50789062 -8.13085938 12.70703125 C-8.29365651 9.24389221 -8.4509097 6.86309805 -10.125 3.78125 C-11.72023493 2.04467111 -11.72023493 2.04467111 -14.4375 2.0625 C-15.200625 2.145 -15.96375 2.2275 -16.75 2.3125 C-18.37747171 5.93732335 -19.72054895 9.19469578 -20.6875 13.0625 C-21.75 16.3125 -21.75 16.3125 -23.5 18.25 C-26.5480229 19.68934415 -28.41921366 19.86763106 -31.75 19.3125 C-34.1875 17.25 -34.1875 17.25 -35.75 14.3125 C-35.75 10.45009189 -35.12981668 8.02259205 -33.3125 4.625 C-25.0136793 -2.86417966 -10.22276047 -4.69021782 0 0 Z M-17.75 29.3125 C-21.19210172 32.75460172 -22.54654788 35.42964907 -22.75 40.3125 C-21.82417343 43.44606684 -21.06531305 44.99718695 -18.75 47.3125 C-15.33273603 47.62891333 -12.72367787 47.7288075 -9.5390625 46.3671875 C-6.63023783 43.02648493 -7.32854423 39.38831375 -7.5 35.125 C-7.51804687 34.28001953 -7.53609375 33.43503906 -7.5546875 32.56445312 C-7.60179414 30.47998427 -7.67353767 28.39609856 -7.75 26.3125 C-12.19867265 26.3125 -13.98780861 27.03950937 -17.75 29.3125 Z " fill="#A8BAA1" transform="translate(1096.75,658.6875)"/>
<path d="M0 0 C5.58130627 4.34854202 8.12055489 9.50146228 9.609375 16.25390625 C10.0037412 22.46517386 10.0037412 22.46517386 8.609375 25.25390625 C-2.280625 25.25390625 -13.170625 25.25390625 -24.390625 25.25390625 C-22.6061083 36.83313206 -22.6061083 36.83313206 -15.47265625 44.54296875 C-10.69867102 46.17311005 -4.94394224 46.22922743 -0.22265625 44.42578125 C1.85439617 43.27818234 1.85439617 43.27818234 4.609375 41.25390625 C5.599375 40.59390625 6.589375 39.93390625 7.609375 39.25390625 C7.939375 40.24390625 8.269375 41.23390625 8.609375 42.25390625 C5.52239616 47.51040518 0.93093551 51.45812923 -4.73828125 53.62890625 C-12.77239027 55.52206891 -21.13487791 55.36492093 -28.49609375 51.4453125 C-35.51185156 47.03334109 -38.79261111 42.04794791 -41.390625 34.25390625 C-42.01353962 23.48467086 -42.17664767 14.66849147 -35.140625 6.00390625 C-26.55163912 -3.2387868 -11.26914748 -6.91078061 0 0 Z M-21.390625 4.25390625 C-23.29695256 8.20570937 -23.75133776 11.70566676 -24.015625 16.06640625 C-24.139375 18.10828125 -24.263125 20.15015625 -24.390625 22.25390625 C-18.450625 22.25390625 -12.510625 22.25390625 -6.390625 22.25390625 C-5.21947263 14.87564632 -4.76303569 8.10144773 -9.140625 1.69140625 C-14.15916774 -1.51488494 -17.94230983 -0.30279594 -21.390625 4.25390625 Z " fill="#4A4A4A" transform="translate(924.390625,659.74609375)"/>
<path d="M0 0 C9.24 0 18.48 0 28 0 C28 0.99 28 1.98 28 3 C26.02 3.99 26.02 3.99 24 5 C26.03849004 12.19386557 28.48156368 19.15709165 31.1875 26.125 C31.55552734 27.08148437 31.92355469 28.03796875 32.30273438 29.0234375 C33.19855445 31.35024289 34.09767773 33.67571021 35 36 C36.43471499 32.25028079 37.85849374 28.49660746 39.27246094 24.73901367 C39.75452961 23.46250229 40.23952181 22.18709086 40.72753906 20.9128418 C41.43029335 19.07635841 42.12152735 17.23547981 42.8125 15.39453125 C43.23144531 14.28956299 43.65039062 13.18459473 44.08203125 12.04614258 C44.95127137 9.16169869 45.19434336 6.98559983 45 4 C43.68 3.34 42.36 2.68 41 2 C41 1.34 41 0.68 41 0 C46.61 0 52.22 0 58 0 C57.67 0.99 57.34 1.98 57 3 C56.21584717 3.24878906 55.43169434 3.49757813 54.6237793 3.75390625 C51.47398333 5.24981754 50.88863043 6.69748859 49.70684814 9.89878845 C49.36662628 10.90795067 49.36662628 10.90795067 49.01953125 11.9375 C48.63785797 12.99361229 48.63785797 12.99361229 48.24847412 14.07106018 C47.70333576 15.58641428 47.16678108 17.10487833 46.63796997 18.62600708 C45.80735994 21.01478246 44.95481802 23.3946217 44.09545898 25.77319336 C42.9371884 28.98279335 41.78656337 32.19494924 40.64257812 35.40966797 C38.35515724 41.82162594 35.97849489 48.19781779 33.5625 54.5625 C33.18649658 55.58150391 32.81049316 56.60050781 32.4230957 57.65039062 C28.97826428 66.72717564 25.11155303 76.44422348 16 81 C11.5315534 81.53551128 8.01433847 81.49681884 3.9375 79.5 C1.59057857 76.47171428 1.25920114 74.67438898 1.51953125 70.91015625 C2 69 2 69 4.0625 66.4375 C7.96490496 64.52781247 9.86369834 64.744337 14 66 C16.75 68.5 16.75 68.5 19 71 C20.485 71.495 20.485 71.495 22 72 C22.433125 70.63875 22.433125 70.63875 22.875 69.25 C24 66 24 66 25.1875 64.0625 C27.58698561 57.97149806 23.45851712 50.71479323 21.0703125 45.15625 C20.67931366 44.22832642 20.28831482 43.30040283 19.88546753 42.34436035 C18.63968599 39.392909 17.38253533 36.44645975 16.125 33.5 C15.28700741 31.51984975 14.44976025 29.53938386 13.61328125 27.55859375 C11.73487825 23.11566646 9.8538802 18.67392462 7.95147705 14.24121094 C7.33726479 12.7944296 6.73566181 11.34219956 6.14959717 9.88378906 C4.72172186 6.16029804 4.72172186 6.16029804 1.8125 3.5625 C1.214375 3.376875 0.61625 3.19125 0 3 C0 2.01 0 1.02 0 0 Z " fill="#A8BBA2" transform="translate(1114,658)"/>
<path d="M0 0 C1.06250977 0.00193359 1.06250977 0.00193359 2.14648438 0.00390625 C7.48701642 0.10216811 11.44244263 0.93997131 16.1875 3.3125 C16.1875 7.6025 16.1875 11.8925 16.1875 16.3125 C15.1975 16.3125 14.2075 16.3125 13.1875 16.3125 C11.6875 14.1953125 11.6875 14.1953125 10.1875 11.4375 C8.32344975 8.02978314 7.47540485 6.50443657 4.1875 4.3125 C-0.41003187 3.86757756 -2.75574973 3.7733417 -6.875 5.875 C-9.13076801 8.25406477 -9.13076801 8.25406477 -9.125 11.8125 C-8.10669363 15.57753329 -8.10669363 15.57753329 -4.5625 17.4375 C-2.99484579 18.10084735 -1.40841053 18.7203522 0.1875 19.3125 C2.41724189 20.144293 4.64637661 20.97771485 6.875 21.8125 C7.95136719 22.1940625 9.02773438 22.575625 10.13671875 22.96875 C14.42452402 24.85736077 17.33868437 27.08318081 20 30.9375 C21.86429185 36.23601368 22.321969 41.24523198 20.34375 46.59375 C17.08687611 52.49133245 12.6397624 54.88623412 6.3828125 56.890625 C-3.59997874 58.80902616 -12.60932304 57.34676935 -21.8125 53.3125 C-21.8125 48.6925 -21.8125 44.0725 -21.8125 39.3125 C-20.8225 39.3125 -19.8325 39.3125 -18.8125 39.3125 C-17.41796875 41.359375 -17.41796875 41.359375 -16 44.0625 C-13.48896707 48.42897599 -11.54370144 51.18828711 -6.8125 53.3125 C-1.68347532 53.95362808 1.94770047 53.34092823 6.1875 50.3125 C7.24464299 47.20714247 7.55251689 45.35255317 6.45996094 42.23950195 C4.8365439 39.78101563 3.59455057 39.36317357 0.828125 38.41796875 C-0.04070313 38.10150391 -0.90953125 37.78503906 -1.8046875 37.45898438 C-3.62566293 36.82576983 -5.44855959 36.1980503 -7.2734375 35.57617188 C-14.07622084 33.08282134 -18.52071134 29.89607733 -21.8125 23.3125 C-22.3363576 18.05674835 -22.47755372 13.66723905 -20.125 8.875 C-14.11324629 2.21332697 -8.92948202 -0.06682494 0 0 Z " fill="#4A4A4A" transform="translate(762.8125,656.6875)"/>
<path d="M0 0 C0.33 16.83 0.66 33.66 1 51 C2.32 51.66 3.64 52.32 5 53 C5 53.66 5 54.32 5 55 C-3.91 55 -12.82 55 -22 55 C-22 54.34 -22 53.68 -22 53 C-20.68 52.34 -19.36 51.68 -18 51 C-18 37.47 -18 23.94 -18 10 C-19.32 9.67 -20.64 9.34 -22 9 C-22 8.01 -22 7.02 -22 6 C-19.08666921 4.99009308 -16.16884681 3.99384048 -13.25 3 C-12.0125 2.57074219 -12.0125 2.57074219 -10.75 2.1328125 C-9.95078125 1.86210938 -9.1515625 1.59140625 -8.328125 1.3125 C-7.5949707 1.06113281 -6.86181641 0.80976562 -6.10644531 0.55078125 C-4 0 -4 0 0 0 Z " fill="#4A4A4A" transform="translate(810,657)"/>
<path d="M0 0 C2.77428577 1.26103899 4.48317435 2.31089914 6.3125 4.75 C7.31199111 8.0210618 7.3581657 10.59742588 7 14 C5.20437595 16.75329021 3.94745078 18.52627461 1 20 C-3.41713859 20.36206054 -5.94898583 20.51432609 -9.9375 18.5625 C-12.45707943 15.43211343 -13.02219375 13.22245098 -13.27734375 9.2578125 C-12.79386147 5.32185816 -10.85725154 3.65790841 -8 1 C-5.17998673 -0.41000664 -3.12992745 -0.24548451 0 0 Z " fill="#A7BAA1" transform="translate(956,694)"/>
<path d="M0 0 C2.96045738 2.59040021 3.85478339 4.12870035 4.5 8 C3.88466097 11.69203416 2.58383614 13.34016868 0 16 C-3.10048928 17.55024464 -5.57894218 17.28992015 -9 17 C-11.75329021 15.20437595 -13.52627461 13.94745078 -15 11 C-15.42576871 7.16808162 -15.30321315 5.47050317 -13.1875 2.1875 C-9.29992852 -1.70007148 -5.05946182 -1.47610053 0 0 Z " fill="#4B4B4B" transform="translate(807,635)"/>
<path d="M0 0 C0.90105469 0.02707031 1.80210937 0.05414062 2.73046875 0.08203125 C3.76107422 0.13423828 3.76107422 0.13423828 4.8125 0.1875 C4.89376087 2.27018593 4.95180839 4.35378658 5 6.4375 C5.03480469 7.59765625 5.06960938 8.7578125 5.10546875 9.953125 C4.78953845 13.44099554 4.35423027 14.81405781 1.8125 17.1875 C-4.14272388 17.70988806 -4.14272388 17.70988806 -7.1875 16.1875 C-6.8575 15.1975 -6.5275 14.2075 -6.1875 13.1875 C-3.8775 13.5175 -1.5675 13.8475 0.8125 14.1875 C0.8125 13.5275 0.8125 12.8675 0.8125 12.1875 C-0.115625 12.249375 -1.04375 12.31125 -2 12.375 C-5.1875 12.1875 -5.1875 12.1875 -7.0625 11.0625 C-8.71604531 8.30659116 -8.58115568 6.33674548 -8.1875 3.1875 C-5.83934143 -0.09380302 -3.89660245 -0.15181568 0 0 Z M-6.1875 4.1875 C-5.86708603 6.79030568 -5.86708603 6.79030568 -5.1875 9.1875 C-2.84216049 9.95706136 -2.84216049 9.95706136 -0.1875 10.1875 C1.6479799 8.85371425 1.6479799 8.85371425 2.8125 7.1875 C2.1525 5.5375 1.4925 3.8875 0.8125 2.1875 C-3.14207848 1.83926193 -3.14207848 1.83926193 -6.1875 4.1875 Z " fill="#4A4A4A" transform="translate(996.1875,737.8125)"/>
<path d="M0 0 C0.99 0.33 1.98 0.66 3 1 C4.1875 3.5625 4.1875 3.5625 5 6 C6.95216435 4.04783565 7.84826645 2.46800047 9 0 C9.99 0.33 10.98 0.66 12 1 C13.1875 3.5625 13.1875 3.5625 14 6 C15.95216435 4.04783565 16.84826645 2.46800047 18 0 C18.66 0 19.32 0 20 0 C19.52309796 1.62566606 19.04340334 3.25051311 18.5625 4.875 C18.29566406 5.77992188 18.02882813 6.68484375 17.75390625 7.6171875 C17 10 17 10 16 12 C15.01 12 14.02 12 13 12 C12.34 9.69 11.68 7.38 11 5 C10.34 5 9.68 5 9 5 C8.34 7.31 7.68 9.62 7 12 C6.01 12 5.02 12 4 12 C3.3291288 10.3767313 2.66342971 8.75132422 2 7.125 C1.62875 6.22007812 1.2575 5.31515625 0.875 4.3828125 C0 2 0 2 0 0 Z " fill="#494949" transform="translate(908,738)"/>
<path d="M0 0 C0.66 0 1.32 0 2 0 C2 5.61 2 11.22 2 17 C-7.17514124 18.14689266 -7.17514124 18.14689266 -10 16 C-11.39935013 13.20129973 -11.25265405 11.09501208 -11 8 C-9.9375 6.125 -9.9375 6.125 -8 5 C-4.3125 4.8125 -4.3125 4.8125 -1 5 C-0.67 3.35 -0.34 1.7 0 0 Z M-9 9 C-8.99077298 11.54713404 -8.99077298 11.54713404 -8 14 C-6.03241727 15.36020151 -6.03241727 15.36020151 -4 16 C-3.01 15.34 -2.02 14.68 -1 14 C-0.66659529 10.95804573 -0.66659529 10.95804573 -1 8 C-2.05310277 6.72996677 -2.05310277 6.72996677 -4.4375 6.8125 C-7.16734675 6.73160017 -7.16734675 6.73160017 -9 9 Z " fill="#4A4A4A" transform="translate(899,733)"/>
<path d="M0 0 C2.3125 1.5625 2.3125 1.5625 4 4 C4.42519574 7.46230815 4.63902633 9.8347167 2.9375 12.9375 C-0.20334326 14.65989792 -2.49818786 14.49148241 -6 14 C-8.5 11.875 -8.5 11.875 -10 9 C-10 5.43909099 -9.69349238 3.74302755 -7.25 1.125 C-4.50272993 -0.24863504 -3.03212094 -0.53062116 0 0 Z M-7 3 C-7 3.66 -7 4.32 -7 5 C-5.02 5 -3.04 5 -1 5 C-0.67 5.66 -0.34 6.32 0 7 C0 6.34 0 5.68 0 5 C0.66 4.67 1.32 4.34 2 4 C0.17462896 1.73980102 0.17462896 1.73980102 -2.5 1.8125 C-4.99790956 1.84101023 -4.99790956 1.84101023 -7 3 Z M-8 6 C-7.62095792 9.29075996 -7.62095792 9.29075996 -6 12 C-3.66702567 12.04092937 -1.33294775 12.04241723 1 12 C1 11.01 1 10.02 1 9 C-0.32 9.33 -1.64 9.66 -3 10 C-3 8.68 -3 7.36 -3 6 C-4.65 6 -6.3 6 -8 6 Z M2 6 C3 9 3 9 3 9 Z " fill="#000000" transform="translate(1086,729)"/>
<path d="M0 0 C1.051875 -0.00386719 1.051875 -0.00386719 2.125 -0.0078125 C4 0.125 4 0.125 6 1.125 C6 1.785 6 2.445 6 3.125 C2.37 3.125 -1.26 3.125 -5 3.125 C-5.80688405 7.06976647 -6.00000429 9.12498285 -5 13.125 C-2.03 13.455 0.94 13.785 4 14.125 C4 12.145 4 10.165 4 8.125 C4.66 8.125 5.32 8.125 6 8.125 C6 10.435 6 12.745 6 15.125 C3.22578757 17.01146445 1.86760546 17.11803187 -1.5625 16.9375 C-5 16.125 -5 16.125 -6.875 15 C-8.64983667 12.04193888 -8.88200002 9.54699954 -9 6.125 C-6.82052809 1.35091867 -5.15134583 -0.01893877 0 0 Z " fill="#494949" transform="translate(851,733.875)"/>
<path d="M0 0 C0.66 0 1.32 0 2 0 C2 5.61 2 11.22 2 17 C-5 18 -5 18 -7.875 16.875 C-10 15 -10 15 -11 12.625 C-11 9.10369569 -10.38038356 7.60354452 -8 5 C-4.3125 4.6875 -4.3125 4.6875 -1 5 C-0.67 3.35 -0.34 1.7 0 0 Z M-8 8 C-8.04080783 9.99958364 -8.04254356 12.00045254 -8 14 C-6.02 14.99 -6.02 14.99 -4 16 C-2.68 15.01 -1.36 14.02 0 13 C-0.37904208 9.70924004 -0.37904208 9.70924004 -2 7 C-5.28894893 6.59371033 -5.28894893 6.59371033 -8 8 Z " fill="#494949" transform="translate(1061,733)"/>
<path d="M0 0 C3.5625 0.3125 3.5625 0.3125 5.5 1.5625 C6.5625 3.3125 6.5625 3.3125 6.5625 7.3125 C3.2625 7.3125 -0.0375 7.3125 -3.4375 7.3125 C-2.64146516 9.46930385 -2.64146516 9.46930385 -0.625 10 C1.75069767 10.33938538 3.29585829 10.04106341 5.5625 9.3125 C5.2325 10.3025 4.9025 11.2925 4.5625 12.3125 C1.45656547 13.28865085 -0.12523499 13.41658834 -3.25 12.375 C-5.4375 10.3125 -5.4375 10.3125 -5.8203125 8.3984375 C-5.875 6.25 -5.875 6.25 -5.4375 2.3125 C-3.4375 0.3125 -3.4375 0.3125 0 0 Z M-2.4375 2.3125 C-2.7675 3.3025 -3.0975 4.2925 -3.4375 5.3125 C-0.7975 5.3125 1.8425 5.3125 4.5625 5.3125 C3.9025 4.3225 3.2425 3.3325 2.5625 2.3125 C-0.02130177 2.06219023 -0.02130177 2.06219023 -2.4375 2.3125 Z " fill="#484848" transform="translate(1071.4375,737.6875)"/>
<path d="M0 0 C3.375 -0.125 3.375 -0.125 7 0 C9 2 9 2 9.1953125 4.3828125 C9.17210937 5.28773438 9.14890625 6.19265625 9.125 7.125 C9.10695313 8.03507813 9.08890625 8.94515625 9.0703125 9.8828125 C9.04710937 10.58148437 9.02390625 11.28015625 9 12 C2.375 13.125 2.375 13.125 -1 12 C-1.625 9.625 -1.625 9.625 -2 7 C0 5 0 5 3.625 4.875 C5.295625 4.936875 5.295625 4.936875 7 5 C6.67 4.34 6.34 3.68 6 3 C3.69 3 1.38 3 -1 3 C-0.67 2.01 -0.34 1.02 0 0 Z M1 7 C1.33 8.32 1.66 9.64 2 11 C3.65 10.34 5.3 9.68 7 9 C7 8.34 7 7.68 7 7 C5.02 7 3.04 7 1 7 Z " fill="#4A4A4A" transform="translate(930,738)"/>
<path d="M0 0 C0.70125 0.00515625 1.4025 0.0103125 2.125 0.015625 C2.82625 0.01046875 3.5275 0.0053125 4.25 0 C6.125 0.265625 6.125 0.265625 8.125 2.265625 C8.69391496 7.3858596 8.69391496 7.3858596 8.125 10.265625 C6 12.390625 6 12.390625 3.125 13.265625 C-2.075 12.065625 -2.075 12.065625 -3.875 10.265625 C-4.14814815 4.52951389 -4.14814815 4.52951389 -3.875 2.265625 C-1.875 0.265625 -1.875 0.265625 0 0 Z M0.125 2.265625 C-0.535 2.925625 -1.195 3.585625 -1.875 4.265625 C-1.55301034 7.36489319 -1.55301034 7.36489319 -0.875 10.265625 C1.105 10.265625 3.085 10.265625 5.125 10.265625 C5.80301034 7.36489319 5.80301034 7.36489319 6.125 4.265625 C5.465 3.605625 4.805 2.945625 4.125 2.265625 C2.805 2.265625 1.485 2.265625 0.125 2.265625 Z " fill="#494949" transform="translate(877.875,737.734375)"/>
<path d="M0 0 C0.70125 0.00515625 1.4025 0.0103125 2.125 0.015625 C2.82625 0.01046875 3.5275 0.0053125 4.25 0 C6.125 0.265625 6.125 0.265625 8.125 2.265625 C8.69391496 7.3858596 8.69391496 7.3858596 8.125 10.265625 C6 12.390625 6 12.390625 3.125 13.265625 C-2.075 12.065625 -2.075 12.065625 -3.875 10.265625 C-4.14814815 4.52951389 -4.14814815 4.52951389 -3.875 2.265625 C-1.875 0.265625 -1.875 0.265625 0 0 Z M0.125 2.265625 C-0.535 2.925625 -1.195 3.585625 -1.875 4.265625 C-1.55301034 7.36489319 -1.55301034 7.36489319 -0.875 10.265625 C1.105 10.265625 3.085 10.265625 5.125 10.265625 C5.80301034 7.36489319 5.80301034 7.36489319 6.125 4.265625 C5.465 3.605625 4.805 2.945625 4.125 2.265625 C2.805 2.265625 1.485 2.265625 0.125 2.265625 Z " fill="#494949" transform="translate(863.875,737.734375)"/>
<path d="M0 0 C0.99 0 1.98 0 3 0 C3.99 2.31 4.98 4.62 6 7 C7.89213369 4.61426621 9.02391783 2.92824652 10 0 C10.99 0.33 11.98 0.66 13 1 C11.85680128 3.48041289 10.71058264 5.95934902 9.5625 8.4375 C9.23701172 9.14455078 8.91152344 9.85160156 8.57617188 10.58007812 C6.11328125 15.88671875 6.11328125 15.88671875 5 17 C3.33382885 17.04063832 1.66611905 17.042721 0 17 C0 16.01 0 15.02 0 14 C1.98 14.495 1.98 14.495 4 15 C3.5000008 10.000008 2.36237296 6.41661032 0 2 C0 1.34 0 0.68 0 0 Z " fill="#484848" transform="translate(940,738)"/>
<path d="M0 0 C0.66 0 1.32 0 2 0 C2 1.65 2 3.3 2 5 C3.11375 4.95875 4.2275 4.9175 5.375 4.875 C9 5 9 5 11 7 C11.1953125 9.3828125 11.1953125 9.3828125 11.125 12.125 C11.10695313 13.03507813 11.08890625 13.94515625 11.0703125 14.8828125 C11.04710937 15.58148437 11.02390625 16.28015625 11 17 C10.34 17 9.68 17 9 17 C8.67 14.03 8.34 11.06 8 8 C6.35 8 4.7 8 3 8 C2.67 10.97 2.34 13.94 2 17 C1.34 17 0.68 17 0 17 C0 11.39 0 5.78 0 0 Z " fill="#494949" transform="translate(1005,733)"/>
<path d="M0 0 C2.05078125 0.03255208 4.1015625 0.06510417 6.15234375 0.09765625 C6.15234375 1.08765625 6.15234375 2.07765625 6.15234375 3.09765625 C3.84234375 2.76765625 1.53234375 2.43765625 -0.84765625 2.09765625 C-0.51765625 2.75765625 -0.18765625 3.41765625 0.15234375 4.09765625 C1.63734375 4.53078125 1.63734375 4.53078125 3.15234375 4.97265625 C4.14234375 5.34390625 5.13234375 5.71515625 6.15234375 6.09765625 C7.02734375 8.22265625 7.02734375 8.22265625 7.15234375 10.09765625 C5.02734375 11.72265625 5.02734375 11.72265625 2.15234375 13.09765625 C-1.16015625 12.28515625 -1.16015625 12.28515625 -3.84765625 11.09765625 C-3.18765625 10.43765625 -2.52765625 9.77765625 -1.84765625 9.09765625 C1.27734375 9.47265625 1.27734375 9.47265625 4.15234375 10.09765625 C3.25898578 7.73980307 3.25898578 7.73980307 0.08984375 6.97265625 C-0.87953125 6.68390625 -1.84890625 6.39515625 -2.84765625 6.09765625 C-2.89037725 4.4315372 -2.88829457 2.7638274 -2.84765625 1.09765625 C-1.84765625 0.09765625 -1.84765625 0.09765625 0 0 Z " fill="#4C4C4C" transform="translate(1036.84765625,737.90234375)"/>
<path d="M0 0 C0.66 0 1.32 0 2 0 C2 0.99 2 1.98 2 3 C3.32 3 4.64 3 6 3 C6 3.66 6 4.32 6 5 C4.68 5 3.36 5 2 5 C2 7.64 2 10.28 2 13 C3.65 13 5.3 13 7 13 C7 13.66 7 14.32 7 15 C5.1875 15.625 5.1875 15.625 3 16 C2.01 15.34 1.02 14.68 0 14 C-0.29296875 11.8359375 -0.29296875 11.8359375 -0.1875 9.375 C-0.16042969 8.55773437 -0.13335938 7.74046875 -0.10546875 6.8984375 C-0.05326172 5.95871094 -0.05326172 5.95871094 0 5 C-0.66 5 -1.32 5 -2 5 C-2 4.34 -2 3.68 -2 3 C-1.34 3 -0.68 3 0 3 C0 2.01 0 1.02 0 0 Z " fill="#4B4B4B" transform="translate(1020,735)"/>
<path d="M0 0 C0.99 0 1.98 0 3 0 C3 3.96 3 7.92 3 12 C2.01 12 1.02 12 0 12 C0 8.04 0 4.08 0 0 Z " fill="#464646" transform="translate(983,738)"/>
<path d="M0 0 C1.98 0 3.96 0 6 0 C6 0.66 6 1.32 6 2 C5.01 2.33 4.02 2.66 3 3 C2.67 5.97 2.34 8.94 2 12 C1.34 12 0.68 12 0 12 C0 8.04 0 4.08 0 0 Z " fill="#4A4A4A" transform="translate(975,738)"/>
<path d="M0 0 C0.66 0 1.32 0 2 0 C2 3.96 2 7.92 2 12 C1.34 12 0.68 12 0 12 C0 8.04 0 4.08 0 0 Z " fill="#4A4A4A" transform="translate(1046,738)"/>
<path d="M0 0 C2.31 0 4.62 0 7 0 C7 0.66 7 1.32 7 2 C4.69 2 2.38 2 0 2 C0 1.34 0 0.68 0 0 Z " fill="#4A4A4A" transform="translate(959,743)"/>
<path d="M0 0 C0.99 0 1.98 0 3 0 C3 0.99 3 1.98 3 3 C2.01 3 1.02 3 0 3 C0 2.01 0 1.02 0 0 Z " fill="#4E4E4E" transform="translate(983,733)"/>
<path d="M0 0 C0.99 0 1.98 0 3 0 C3 0.99 3 1.98 3 3 C2.01 2.67 1.02 2.34 0 2 C0 1.34 0 0.68 0 0 Z " fill="#505050" transform="translate(1045,733)"/>
</svg>
