<?xml version="1.0" encoding="UTF-8"?>
<svg version="1.1" xmlns="http://www.w3.org/2000/svg" width="1920" height="1080">
<path d="M0 0 C0.71422237 13.25279282 -0.18208762 25.22255153 -9 36 C-13.12340741 40.48338743 -17.21794324 44.57604479 -22.3125 47.9375 C-27.06798586 51.41735257 -28.29613661 55.50301215 -30 61 C-36.27132821 81.0691976 -36.27132821 81.0691976 -42 88 C-42.51820313 88.65355469 -43.03640625 89.30710937 -43.5703125 89.98046875 C-46.119177 93.08649709 -48.60936514 95.78304644 -52 98 C-50.47146065 102.27186525 -48.28490519 105.99326863 -45.875 109.8125 C-45.50246094 110.40998047 -45.12992188 111.00746094 -44.74609375 111.62304688 C-43.8342952 113.08426251 -42.91764024 114.54244585 -42 116 C-38.91087737 113.15106833 -36.90353324 110.39412799 -34.9375 106.6875 C-34.45152344 105.78386719 -33.96554687 104.88023437 -33.46484375 103.94921875 C-31.84298474 100.68387595 -30.41200506 97.35904791 -29 94 C-25.71277494 86.31291623 -22.37522376 78.64882798 -19 71 C-18.55237305 69.97277832 -18.55237305 69.97277832 -18.09570312 68.92480469 C-12.52475153 56.2590407 -5.00872171 48.10182863 8 43 C11.72306082 41.73094847 15.34046441 41.9013006 19.25 41.9375 C21.14492188 41.95103516 21.14492188 41.95103516 23.078125 41.96484375 C24.04234375 41.97644531 25.0065625 41.98804688 26 42 C25.36994545 54.39107273 20.79400615 65.18997562 12 74 C7.45580472 78.05317221 3.4349836 79.93441004 -2.52539062 81.17114258 C-7.00786502 82.20142447 -10.64388454 83.14278057 -13.45751953 86.99609375 C-16.18418923 91.99960968 -18.15784711 97.30131228 -20.109375 102.64501953 C-24.95402357 115.45518402 -34.16502423 127.59351902 -44 137 C-44.66 137 -45.32 137 -46 137 C-46.40557129 136.0884314 -46.40557129 136.0884314 -46.81933594 135.15844727 C-51.59773873 124.527202 -56.46662033 114.01838423 -63.0625 104.375 C-63.50754883 103.69638916 -63.95259766 103.01777832 -64.41113281 102.31860352 C-68.75885315 96.24276476 -74.46687606 92.99045074 -81.7487793 91.39941406 C-84.60100849 90.98886404 -87.44251674 90.69425508 -90.3125 90.4375 C-103.51617085 88.95612283 -113.78803929 87.08203604 -124 78 C-124.969375 77.29875 -125.93875 76.5975 -126.9375 75.875 C-129.2761933 73.74891518 -130.08451005 71.99614892 -131 69 C-131.66 69 -132.32 69 -133 69 C-133.99 66.36 -134.98 63.72 -136 61 C-128.13304705 55.7553647 -120.27397855 55.04934135 -111 56 C-93.47203294 59.90352564 -79.45611795 69.42176325 -67 82 C-66.24460937 82.75410156 -65.48921875 83.50820313 -64.7109375 84.28515625 C-64.08445312 84.91292969 -63.45796875 85.54070312 -62.8125 86.1875 C-60.32940392 88.96705961 -60.32940392 88.96705961 -58 90 C-55.1240135 81.03368914 -55.55257638 73.46301081 -59.5625 64.875 C-63.89353864 56.94160458 -68.78110691 51.15817641 -76.5625 46.5 C-85.38298586 41.18571835 -90.00266375 33.73328545 -93 24 C-93.84986474 20.49500228 -94.11053444 17.29008286 -94.0625 13.6875 C-94.05347656 12.80449219 -94.04445313 11.92148437 -94.03515625 11.01171875 C-94.02355469 10.34785156 -94.01195312 9.68398438 -94 9 C-92 8 -92 8 -88.515625 9.07421875 C-87.09071677 9.60388969 -85.66894165 10.14204663 -84.25 10.6875 C-83.54617188 10.94466797 -82.84234375 11.20183594 -82.1171875 11.46679688 C-68.85484586 16.48331458 -60.70139108 26.21343081 -54.66015625 38.7890625 C-50.25509973 49.45689907 -47.76589595 60.82325939 -45 72 C-43.14427932 64.95862331 -41.57972224 57.93611558 -40.31518555 50.76586914 C-37.29625307 33.98895063 -32.02078186 18.62702646 -18.0625 7.6875 C-6.38608758 -0.3802574 -6.38608758 -0.3802574 0 0 Z " fill="#A8BBA2" transform="translate(999,439)"/>
<path d="M0 0 C1.39025391 0.01353516 1.39025391 0.01353516 2.80859375 0.02734375 C5.08100077 0.05077063 7.3528618 0.08357252 9.625 0.125 C10.64895989 3.35576999 10.77286826 4.7709975 9.4453125 7.94921875 C8.60613281 9.36654297 8.60613281 9.36654297 7.75 10.8125 C6.91855469 12.24142578 6.91855469 12.24142578 6.0703125 13.69921875 C5.35488281 14.89998047 5.35488281 14.89998047 4.625 16.125 C4.295 16.785 3.965 17.445 3.625 18.125 C2.965 18.125 2.305 18.125 1.625 18.125 C1.3775 18.7128125 1.13 19.300625 0.875 19.90625 C-2.55086439 25.9871593 -9.79695855 29.86883997 -16.171875 32.234375 C-20.5466603 33.45077872 -24.9753099 34.23541585 -29.4375 35.0625 C-42.32107279 37.51802372 -49.37211365 41.55889126 -57.21582031 52.39550781 C-65.20860812 64.32072029 -68.81693121 76.77778449 -67.375 91.125 C-65.15731742 101.45738473 -59.09155961 110.16662153 -50.375 116.125 C-45.91572199 118.52733049 -41.43541745 120.47204291 -36.375 121.125 C-36.375 121.455 -36.375 121.785 -36.375 122.125 C-65.04035366 123.27112643 -93.69081056 123.23559194 -122.375 123.125 C-122.375 122.465 -122.375 121.805 -122.375 121.125 C-121.68535156 120.91746094 -120.99570312 120.70992187 -120.28515625 120.49609375 C-108.28192992 116.56087963 -101.15237559 110.28163654 -95.34375 99.1484375 C-90.74447072 88.11868442 -92.51449658 74.89590558 -96.88671875 64.15625 C-98.93488898 59.98464869 -101.2003533 56.51238075 -104.375 53.125 C-105.261875 52.155625 -106.14875 51.18625 -107.0625 50.1875 C-113.6816899 46.06611761 -121.37045894 47.12006091 -128.9375 47.25 C-141.50587993 47.28812451 -151.22895518 42.84448747 -160.625 34.4375 C-162.375 32.125 -162.375 32.125 -162.26953125 30.17578125 C-160.21074398 25.45585411 -153.86225334 23.11060319 -149.28515625 21.296875 C-138.00805661 18.06825752 -127.10720673 20.62304493 -116.890625 25.9375 C-99.0814211 36.3507482 -88.48174123 51.44683064 -80.375 70.125 C-80.024375 69.2175 -79.67375 68.31 -79.3125 67.375 C-74.26582242 55.64680562 -67.22873073 44.3092347 -57.51782227 36.01000977 C-54.02065976 32.93360648 -50.81492908 29.58065104 -47.5625 26.25 C-34.03261743 12.60261613 -20.17806842 -0.37420098 0 0 Z " fill="#A8BBA2" transform="translate(1033.375,519.875)"/>
<path d="M0 0 C0.00586624 0.91010834 0.01173248 1.82021667 0.01777649 2.75790405 C0.07560804 11.32225236 0.14762931 19.8863372 0.23571491 28.45042992 C0.28050017 32.85365353 0.31973794 37.25678287 0.34643555 41.66015625 C0.37238767 45.9072852 0.41273162 50.15405292 0.46318626 54.40095901 C0.47991002 56.02367292 0.49138988 57.64644938 0.49761391 59.26923752 C0.5071957 61.53713879 0.53518101 63.80410439 0.56762695 66.07177734 C0.58428154 68.01037125 0.58428154 68.01037125 0.60127258 69.98812866 C0.73285263 70.9820462 0.86443268 71.97596375 1 73 C1.99 73.66 2.98 74.32 4 75 C4 75.99 4 76.98 4 78 C-5.9 78.495 -5.9 78.495 -16 79 C-16.33 78.01 -16.66 77.02 -17 76 C-18.0725 76.495 -19.145 76.99 -20.25 77.5 C-27.39801159 80.16149368 -36.15162881 80.32239204 -43.1875 77.15625 C-49.693139 73.00610098 -52.91614569 67.33657866 -54.56640625 59.92578125 C-56.07166108 49.76870137 -55.14591425 40.74942949 -50.1875 31.6875 C-46.09462417 26.65910969 -42.25753476 23.68878046 -36 22 C-32.5625 21.734375 -32.5625 21.734375 -29 21.75 C-27.2365625 21.74226562 -27.2365625 21.74226562 -25.4375 21.734375 C-22 22 -22 22 -16 24 C-16.33 18.39 -16.66 12.78 -17 7 C-19.475 6.505 -19.475 6.505 -22 6 C-22 5.34 -22 4.68 -22 4 C-19.08644159 3.13372595 -16.16995672 2.28168994 -13.25 1.4375 C-12.425 1.19064453 -11.6 0.94378906 -10.75 0.68945312 C-9.95078125 0.46064453 -9.1515625 0.23183594 -8.328125 -0.00390625 C-7.5949707 -0.21861572 -6.86181641 -0.4333252 -6.10644531 -0.65454102 C-3.74742187 -1.04142305 -2.27698902 -0.63567276 0 0 Z M-33 30 C-36.81598443 36.53456157 -37.37619997 43.22788917 -37.4375 50.625 C-37.4475708 51.41205322 -37.4576416 52.19910645 -37.46801758 53.01000977 C-37.37819123 59.12011289 -36.53902698 65.6799584 -32.7253418 70.66674805 C-30.01821169 73.22783738 -28.0599507 73.99276457 -24.375 74.4375 C-20.76815341 74.15784389 -20.76815341 74.15784389 -17 72 C-17 57.48 -17 42.96 -17 28 C-23.1965707 24.90171465 -28.26749695 24.50006402 -33 30 Z " fill="#4B4B4B" transform="translate(874,636)"/>
<path d="M0 0 C9.24 0 18.48 0 28 0 C28 0.99 28 1.98 28 3 C27.01 3.33 26.02 3.66 25 4 C25.58471181 10.82975878 27.36682833 16.93946503 29.5 23.4375 C29.82097656 24.44232422 30.14195312 25.44714844 30.47265625 26.48242188 C31.62815285 31.07782156 31.62815285 31.07782156 34 35 C35.21043852 32.17463728 36.39305979 29.34229658 37.5625 26.5 C37.90474609 25.70851563 38.24699219 24.91703125 38.59960938 24.1015625 C40.86374395 18.52127123 41.32278796 14.9011754 40 9 C38.2389807 5.27149414 38.2389807 5.27149414 35 3 C35 2.01 35 1.02 35 0 C42.59 0 50.18 0 58 0 C58 0.99 58 1.98 58 3 C57.34 3.33 56.68 3.66 56 4 C56.61401279 10.26120085 58.48936114 15.83026488 60.5625 21.75 C61.21375046 23.61836237 61.86107152 25.4881004 62.50390625 27.359375 C62.79080322 28.17889648 63.0777002 28.99841797 63.37329102 29.84277344 C64 32 64 32 64 35 C64.66 35 65.32 35 66 35 C66.12689209 34.29786377 66.25378418 33.59572754 66.38452148 32.87231445 C67.0320191 29.85057332 67.89767287 26.9833935 68.84765625 24.04296875 C69.38422852 22.37524414 69.38422852 22.37524414 69.93164062 20.67382812 C70.49141602 18.9480957 70.49141602 18.9480957 71.0625 17.1875 C71.43955078 16.01767578 71.81660156 14.84785156 72.20507812 13.64257812 C73.13426679 10.76091708 74.06599028 7.88010132 75 5 C73.68 4.34 72.36 3.68 71 3 C71 2.01 71 1.02 71 0 C75.62 0 80.24 0 85 0 C85 0.99 85 1.98 85 3 C84.21889359 3.23065155 83.43778717 3.4613031 82.63301086 3.69894409 C79.87660963 4.75988901 79.87660963 4.75988901 78.75334167 7.13870239 C78.46244156 8.0225058 78.17154144 8.9063092 77.87182617 9.81689453 C77.53185104 10.81778107 77.19187592 11.8186676 76.84159851 12.84988403 C76.49555069 13.93325043 76.14950287 15.01661682 75.79296875 16.1328125 C75.42271072 17.23978485 75.0524527 18.3467572 74.67097473 19.48727417 C73.49152354 23.02742215 72.33930737 26.57577314 71.1875 30.125 C70.39305249 32.52532827 69.59685 34.92507645 68.79882812 37.32421875 C66.84546455 43.20956389 64.91439221 49.10187082 63 55 C60.69 55 58.38 55 56 55 C53.15595038 48.10009643 50.60221652 41.14438794 48.25 34.0625 C47.93417969 33.13115234 47.61835937 32.19980469 47.29296875 31.24023438 C46.84630859 29.9012207 46.84630859 29.9012207 46.390625 28.53515625 C46.12282227 27.734729 45.85501953 26.93430176 45.57910156 26.10961914 C45 24 45 24 45 21 C44.34 21 43.68 21 43 21 C42.76539063 22.21558594 42.53078125 23.43117188 42.2890625 24.68359375 C40.88388899 31.00687453 38.61543525 36.99582143 36.375 43.0625 C35.74464844 44.79016602 35.74464844 44.79016602 35.1015625 46.55273438 C34.07271705 49.37036794 33.03876545 52.18601184 32 55 C29.36 55 26.72 55 24 55 C23.08531542 52.56084111 22.17069598 50.12165802 21.25634766 47.68237305 C20.45370451 45.54281201 19.64997558 43.40365802 18.84521484 41.26489258 C16.70601492 35.57492031 14.58546866 29.8793019 12.50390625 24.16796875 C12.10486084 23.08128906 11.70581543 21.99460937 11.29467773 20.875 C10.52581802 18.77977303 9.76341126 16.68216475 9.00805664 14.58203125 C8.48199829 13.15503906 8.48199829 13.15503906 7.9453125 11.69921875 C7.64125488 10.86221436 7.33719727 10.02520996 7.02392578 9.1628418 C5.35920227 5.64644086 3.21815717 4.14543811 0 2 C0 1.34 0 0.68 0 0 Z " fill="#A8BBA2" transform="translate(970,659)"/>
<path d="M0 0 C5.84742486 4.16066769 7.52537914 7.38939772 8.82177734 14.23681641 C9.66232762 20.27401842 9.73007976 26.35085011 9.875 32.4375 C9.91328301 33.7890848 9.95234027 35.14064791 9.9921875 36.4921875 C10.08571054 39.76549391 10.17146198 43.03880557 10.25 46.3125 C12.56 46.9725 14.87 47.6325 17.25 48.3125 C16.237668 51.24826279 15.28642058 52.28762741 12.6875 54.0625 C8.38469534 55.62715624 4.77696402 56.06564428 0.25 55.3125 C-2.93970398 53.57266146 -5.19695493 51.86554507 -7.75 49.3125 C-8.27207031 49.745625 -8.79414062 50.17875 -9.33203125 50.625 C-14.61145098 54.61923699 -18.5117502 56.1701607 -25.1640625 55.76953125 C-30.11490462 54.89453347 -33.26449904 52.94175912 -36.6875 49.1875 C-38.30360833 44.814501 -38.61096801 40.90432941 -37.75 36.3125 C-35.05793471 30.92836941 -30.57763408 28.2317361 -25.1171875 26.08984375 C-19.23069692 24.15682127 -13.96132206 23.20586786 -7.75 23.3125 C-7.83711104 20.56099263 -7.94399615 17.81268367 -8.0625 15.0625 C-8.08505859 14.28519531 -8.10761719 13.50789062 -8.13085938 12.70703125 C-8.29365651 9.24389221 -8.4509097 6.86309805 -10.125 3.78125 C-11.72023493 2.04467111 -11.72023493 2.04467111 -14.4375 2.0625 C-15.200625 2.145 -15.96375 2.2275 -16.75 2.3125 C-18.37747171 5.93732335 -19.72054895 9.19469578 -20.6875 13.0625 C-21.75 16.3125 -21.75 16.3125 -23.5 18.25 C-26.5480229 19.68934415 -28.41921366 19.86763106 -31.75 19.3125 C-34.1875 17.25 -34.1875 17.25 -35.75 14.3125 C-35.75 10.45009189 -35.12981668 8.02259205 -33.3125 4.625 C-25.0136793 -2.86417966 -10.22276047 -4.69021782 0 0 Z M-17.75 29.3125 C-21.19210172 32.75460172 -22.54654788 35.42964907 -22.75 40.3125 C-21.82417343 43.44606684 -21.06531305 44.99718695 -18.75 47.3125 C-15.33273603 47.62891333 -12.72367787 47.7288075 -9.5390625 46.3671875 C-6.63023783 43.02648493 -7.32854423 39.38831375 -7.5 35.125 C-7.51804687 34.28001953 -7.53609375 33.43503906 -7.5546875 32.56445312 C-7.60179414 30.47998427 -7.67353767 28.39609856 -7.75 26.3125 C-12.19867265 26.3125 -13.98780861 27.03950937 -17.75 29.3125 Z " fill="#A8BBA2" transform="translate(1096.75,659.6875)"/>
<path d="M0 0 C5.58130627 4.34854202 8.12055489 9.50146228 9.609375 16.25390625 C10.0037412 22.46517386 10.0037412 22.46517386 8.609375 25.25390625 C-2.280625 25.25390625 -13.170625 25.25390625 -24.390625 25.25390625 C-22.6061083 36.83313206 -22.6061083 36.83313206 -15.47265625 44.54296875 C-10.69867102 46.17311005 -4.94394224 46.22922743 -0.22265625 44.42578125 C1.85439617 43.27818234 1.85439617 43.27818234 4.609375 41.25390625 C5.599375 40.59390625 6.589375 39.93390625 7.609375 39.25390625 C7.939375 40.24390625 8.269375 41.23390625 8.609375 42.25390625 C5.52239616 47.51040518 0.93093551 51.45812923 -4.73828125 53.62890625 C-12.77239027 55.52206891 -21.13487791 55.36492093 -28.49609375 51.4453125 C-35.51185156 47.03334109 -38.79261111 42.04794791 -41.390625 34.25390625 C-42.01353962 23.48467086 -42.17664767 14.66849147 -35.140625 6.00390625 C-26.55163912 -3.2387868 -11.26914748 -6.91078061 0 0 Z M-21.390625 4.25390625 C-23.29695256 8.20570937 -23.75133776 11.70566676 -24.015625 16.06640625 C-24.139375 18.10828125 -24.263125 20.15015625 -24.390625 22.25390625 C-18.450625 22.25390625 -12.510625 22.25390625 -6.390625 22.25390625 C-5.21947263 14.87564632 -4.76303569 8.10144773 -9.140625 1.69140625 C-14.15916774 -1.51488494 -17.94230983 -0.30279594 -21.390625 4.25390625 Z " fill="#4B4B4B" transform="translate(924.390625,660.74609375)"/>
<path d="M0 0 C9.24 0 18.48 0 28 0 C28 0.99 28 1.98 28 3 C26.02 3.99 26.02 3.99 24 5 C26.03849004 12.19386557 28.48156368 19.15709165 31.1875 26.125 C31.55552734 27.08148437 31.92355469 28.03796875 32.30273438 29.0234375 C33.19855445 31.35024289 34.09767773 33.67571021 35 36 C36.43471499 32.25028079 37.85849374 28.49660746 39.27246094 24.73901367 C39.75452961 23.46250229 40.23952181 22.18709086 40.72753906 20.9128418 C41.43029335 19.07635841 42.12152735 17.23547981 42.8125 15.39453125 C43.23144531 14.28956299 43.65039062 13.18459473 44.08203125 12.04614258 C44.95127137 9.16169869 45.19434336 6.98559983 45 4 C43.68 3.34 42.36 2.68 41 2 C41 1.34 41 0.68 41 0 C46.61 0 52.22 0 58 0 C57.67 0.99 57.34 1.98 57 3 C56.21584717 3.24878906 55.43169434 3.49757813 54.6237793 3.75390625 C51.47398333 5.24981754 50.88863043 6.69748859 49.70684814 9.89878845 C49.36662628 10.90795067 49.36662628 10.90795067 49.01953125 11.9375 C48.63785797 12.99361229 48.63785797 12.99361229 48.24847412 14.07106018 C47.70333576 15.58641428 47.16678108 17.10487833 46.63796997 18.62600708 C45.80735994 21.01478246 44.95481802 23.3946217 44.09545898 25.77319336 C42.9371884 28.98279335 41.78656337 32.19494924 40.64257812 35.40966797 C38.35515724 41.82162594 35.97849489 48.19781779 33.5625 54.5625 C33.18649658 55.58150391 32.81049316 56.60050781 32.4230957 57.65039062 C28.97826428 66.72717564 25.11155303 76.44422348 16 81 C11.5315534 81.53551128 8.01433847 81.49681884 3.9375 79.5 C1.59057857 76.47171428 1.25920114 74.67438898 1.51953125 70.91015625 C2 69 2 69 4.0625 66.4375 C7.96490496 64.52781247 9.86369834 64.744337 14 66 C16.75 68.5 16.75 68.5 19 71 C20.485 71.495 20.485 71.495 22 72 C22.433125 70.63875 22.433125 70.63875 22.875 69.25 C24 66 24 66 25.1875 64.0625 C27.58698561 57.97149806 23.45851712 50.71479323 21.0703125 45.15625 C20.67931366 44.22832642 20.28831482 43.30040283 19.88546753 42.34436035 C18.63968599 39.392909 17.38253533 36.44645975 16.125 33.5 C15.28700741 31.51984975 14.44976025 29.53938386 13.61328125 27.55859375 C11.73487825 23.11566646 9.8538802 18.67392462 7.95147705 14.24121094 C7.33726479 12.7944296 6.73566181 11.34219956 6.14959717 9.88378906 C4.72172186 6.16029804 4.72172186 6.16029804 1.8125 3.5625 C1.214375 3.376875 0.61625 3.19125 0 3 C0 2.01 0 1.02 0 0 Z " fill="#A8BBA2" transform="translate(1114,659)"/>
<path d="M0 0 C1.06250977 0.00193359 1.06250977 0.00193359 2.14648438 0.00390625 C7.48701642 0.10216811 11.44244263 0.93997131 16.1875 3.3125 C16.1875 7.6025 16.1875 11.8925 16.1875 16.3125 C15.1975 16.3125 14.2075 16.3125 13.1875 16.3125 C11.6875 14.1953125 11.6875 14.1953125 10.1875 11.4375 C8.32344975 8.02978314 7.47540485 6.50443657 4.1875 4.3125 C-0.41003187 3.86757756 -2.75574973 3.7733417 -6.875 5.875 C-9.13076801 8.25406477 -9.13076801 8.25406477 -9.125 11.8125 C-8.10669363 15.57753329 -8.10669363 15.57753329 -4.5625 17.4375 C-2.99484579 18.10084735 -1.40841053 18.7203522 0.1875 19.3125 C2.41724189 20.144293 4.64637661 20.97771485 6.875 21.8125 C7.95136719 22.1940625 9.02773438 22.575625 10.13671875 22.96875 C14.42452402 24.85736077 17.33868437 27.08318081 20 30.9375 C21.86429185 36.23601368 22.321969 41.24523198 20.34375 46.59375 C17.08687611 52.49133245 12.6397624 54.88623412 6.3828125 56.890625 C-3.59997874 58.80902616 -12.60932304 57.34676935 -21.8125 53.3125 C-21.8125 48.6925 -21.8125 44.0725 -21.8125 39.3125 C-20.8225 39.3125 -19.8325 39.3125 -18.8125 39.3125 C-17.41796875 41.359375 -17.41796875 41.359375 -16 44.0625 C-13.48896707 48.42897599 -11.54370144 51.18828711 -6.8125 53.3125 C-1.68347532 53.95362808 1.94770047 53.34092823 6.1875 50.3125 C7.24464299 47.20714247 7.55251689 45.35255317 6.45996094 42.23950195 C4.8365439 39.78101563 3.59455057 39.36317357 0.828125 38.41796875 C-0.04070313 38.10150391 -0.90953125 37.78503906 -1.8046875 37.45898438 C-3.62566293 36.82576983 -5.44855959 36.1980503 -7.2734375 35.57617188 C-14.07622084 33.08282134 -18.52071134 29.89607733 -21.8125 23.3125 C-22.3363576 18.05674835 -22.47755372 13.66723905 -20.125 8.875 C-14.11324629 2.21332697 -8.92948202 -0.06682494 0 0 Z " fill="#4B4B4B" transform="translate(762.8125,657.6875)"/>
<path d="M0 0 C0.33 16.83 0.66 33.66 1 51 C2.32 51.66 3.64 52.32 5 53 C5 53.66 5 54.32 5 55 C-3.91 55 -12.82 55 -22 55 C-22 54.34 -22 53.68 -22 53 C-20.68 52.34 -19.36 51.68 -18 51 C-18 37.47 -18 23.94 -18 10 C-19.32 9.67 -20.64 9.34 -22 9 C-22 8.01 -22 7.02 -22 6 C-19.08666921 4.99009308 -16.16884681 3.99384048 -13.25 3 C-12.0125 2.57074219 -12.0125 2.57074219 -10.75 2.1328125 C-9.95078125 1.86210938 -9.1515625 1.59140625 -8.328125 1.3125 C-7.5949707 1.06113281 -6.86181641 0.80976562 -6.10644531 0.55078125 C-4 0 -4 0 0 0 Z " fill="#4B4B4B" transform="translate(810,658)"/>
<path d="M0 0 C2.77428577 1.26103899 4.48317435 2.31089914 6.3125 4.75 C7.31199111 8.0210618 7.3581657 10.59742588 7 14 C5.20437595 16.75329021 3.94745078 18.52627461 1 20 C-3.41713859 20.36206054 -5.94898583 20.51432609 -9.9375 18.5625 C-12.45707943 15.43211343 -13.02219375 13.22245098 -13.27734375 9.2578125 C-12.79386147 5.32185816 -10.85725154 3.65790841 -8 1 C-5.17998673 -0.41000664 -3.12992745 -0.24548451 0 0 Z " fill="#A8BBA2" transform="translate(956,695)"/>
<path d="M0 0 C2.96045738 2.59040021 3.85478339 4.12870035 4.5 8 C3.88466097 11.69203416 2.58383614 13.34016868 0 16 C-3.10048928 17.55024464 -5.57894218 17.28992015 -9 17 C-11.75329021 15.20437595 -13.52627461 13.94745078 -15 11 C-15.42576871 7.16808162 -15.30321315 5.47050317 -13.1875 2.1875 C-9.29992852 -1.70007148 -5.05946182 -1.47610053 0 0 Z " fill="#4B4B4B" transform="translate(807,636)"/>
</svg>
